<?xml version="1.0" encoding="UTF-8" standalone="no"?>
<!-- Created with Inkscape (http://www.inkscape.org/) -->

<svg
   width="512"
   height="512"
   viewBox="0 0 135.46666 135.46667"
   version="1.1"
   id="svg1"
   inkscape:version="1.4.2 (ebf0e940, 2025-05-08)"
   sodipodi:docname="app-icon.svg"
   xml:space="preserve"
   xmlns:inkscape="http://www.inkscape.org/namespaces/inkscape"
   xmlns:sodipodi="http://sodipodi.sourceforge.net/DTD/sodipodi-0.dtd"
   xmlns:xlink="http://www.w3.org/1999/xlink"
   xmlns="http://www.w3.org/2000/svg"
   xmlns:svg="http://www.w3.org/2000/svg"><sodipodi:namedview
     id="namedview1"
     pagecolor="#c7c7c7"
     bordercolor="#666666"
     borderopacity="1.0"
     inkscape:showpageshadow="2"
     inkscape:pageopacity="0.0"
     inkscape:pagecheckerboard="0"
     inkscape:deskcolor="#d1d1d1"
     inkscape:document-units="px"
     inkscape:zoom="1.7220865"
     inkscape:cx="209.04873"
     inkscape:cy="187.56317"
     inkscape:current-layer="layer1" /><defs
     id="defs1"><linearGradient
       id="linearGradient2"
       inkscape:collect="always"><stop
         style="stop-color:#292929;stop-opacity:1;"
         offset="0"
         id="stop2" /><stop
         style="stop-color:#595959;stop-opacity:1;"
         offset="1"
         id="stop3" /></linearGradient><linearGradient
       id="linearGradient9419-4"><stop
         id="stop9421-7"
         offset="0"
         style="stop-color:#cdcdcd;stop-opacity:1;" /><stop
         style="stop-color:#ffffff;stop-opacity:1;"
         offset="0.5"
         id="stop9427-1" /><stop
         id="stop9423-3"
         offset="1"
         style="stop-color:#cdcdcd;stop-opacity:1;" /></linearGradient><linearGradient
       id="linearGradient9479-5"><stop
         id="stop9481-5"
         offset="0"
         style="stop-color:#cdcdcd;stop-opacity:1;" /><stop
         style="stop-color:#e7e7e7;stop-opacity:1;"
         offset="0.5"
         id="stop9489-8" /><stop
         id="stop9483-1"
         offset="1"
         style="stop-color:#cdcdcd;stop-opacity:1;" /></linearGradient><linearGradient
       id="linearGradient8674-3"><stop
         id="stop8676-6"
         offset="0"
         style="stop-color:#161616;stop-opacity:1;" /><stop
         style="stop-color:#dedede;stop-opacity:1;"
         offset="0.5"
         id="stop8682-5" /><stop
         id="stop8678-9"
         offset="1"
         style="stop-color:#161616;stop-opacity:1;" /></linearGradient><linearGradient
       id="linearGradient8726-8"><stop
         id="stop8728-8"
         offset="0"
         style="stop-color:#545454;stop-opacity:1;" /><stop
         style="stop-color:#444444;stop-opacity:1;"
         offset="0.5"
         id="stop8734-3" /><stop
         id="stop8730-8"
         offset="1"
         style="stop-color:#545454;stop-opacity:1;" /></linearGradient><linearGradient
       id="linearGradient8718-15"><stop
         id="stop8720-3"
         offset="0"
         style="stop-color:#5e5e5e;stop-opacity:1;" /><stop
         style="stop-color:#8b8b8b;stop-opacity:1;"
         offset="0.5"
         id="stop8736-5" /><stop
         id="stop8722-4"
         offset="1"
         style="stop-color:#5c5c5c;stop-opacity:1;" /></linearGradient><linearGradient
       id="linearGradient8745-4"><stop
         id="stop8747-1"
         offset="0"
         style="stop-color:#111111;stop-opacity:1;" /><stop
         id="stop8749-37"
         offset="1"
         style="stop-color:#545454;stop-opacity:1;" /></linearGradient><linearGradient
       id="linearGradient8791-0"><stop
         id="stop8793-32"
         offset="0"
         style="stop-color:#000000;stop-opacity:1;" /><stop
         style="stop-color:#545454;stop-opacity:1;"
         offset="0.5"
         id="stop8799-6" /><stop
         id="stop8795-9"
         offset="1"
         style="stop-color:#000000;stop-opacity:1;" /></linearGradient><linearGradient
       inkscape:collect="always"
       xlink:href="#linearGradient2"
       id="linearGradient3"
       x1="72.722702"
       y1="135.46666"
       x2="72.20945"
       y2="0"
       gradientUnits="userSpaceOnUse" /></defs><g
     inkscape:label="Layer 1"
     inkscape:groupmode="layer"
     id="layer1"><rect
       style="fill:url(#linearGradient3);stroke-width:10.5833;stroke-linecap:round;stroke-linejoin:round;-inkscape-stroke:none;paint-order:stroke markers fill"
       id="rect2"
       width="135.46666"
       height="135.46666"
       x="0"
       y="0"
       ry="28.884535" /><rect
       style="fill:none;stroke:#eaeaea;stroke-width:1.32292;stroke-linecap:round;stroke-linejoin:round;stroke-dasharray:none;stroke-opacity:1;paint-order:stroke markers fill"
       id="rect1"
       width="119.0625"
       height="87.3125"
       x="8.2020826"
       y="10.925972"
       ry="19.512424" /><g
       id="g5"
       transform="matrix(1.0146703,0,0,1.0158808,-1.7536506,-5.7635011)"
       style="stroke-width:0.984954"><circle
         style="fill:none;fill-opacity:1;stroke:#eaeaea;stroke-width:1.30302;stroke-linecap:round;stroke-linejoin:round;stroke-dasharray:none;stroke-opacity:1;paint-order:stroke markers fill"
         id="path3"
         cx="93.442902"
         cy="118.0301"
         r="6.9836884" /><path
         style="fill:none;stroke:#f2f2f2;stroke-width:1.30302;stroke-linecap:round;stroke-linejoin:round;stroke-dasharray:none;stroke-opacity:1"
         d="M 85.853827,118.0301 H 9.8117936"
         id="path4" /><path
         style="fill:none;stroke:#f2f2f2;stroke-width:1.30302;stroke-linecap:round;stroke-linejoin:round;stroke-dasharray:none;stroke-opacity:1"
         d="M 127.15286,118.0301 H 100.79441"
         id="path5" /></g><g
       id="g10"
       transform="translate(3.9999985)"><path
         id="path9"
         style="font-weight:bold;font-size:16.9333px;line-height:1.25;font-family:'Helvetica Neue';-inkscape-font-specification:'Helvetica Neue, Bold';text-align:center;text-anchor:middle;fill:#f2f2f2;stroke-width:0.264583"
         d="m 83.540801,54.387393 q 0,-1.402736 0,-3.350973 0.07791,-2.026169 0.311704,-4.130267 0.233789,-2.104098 0.779295,-4.130268 0.545507,-2.104098 1.480664,-3.740618 1.013085,-1.636524 2.493748,-2.649609 1.558591,-1.013085 3.818548,-1.013085 2.25996,0 3.81855,1.013085 1.55859,1.013085 2.57168,2.649609 1.01308,1.63652 1.48066,3.740618 0.54551,2.02617 0.7793,4.130268 0.3117,2.104098 0.3117,4.130267 0.0779,1.948237 0.0779,3.350973 0,2.337887 -0.15587,5.688859 -0.15588,3.273039 -1.01309,6.390222 -0.77929,3.039255 -2.6496,5.221281 -1.79238,2.182031 -5.22129,2.182031 -3.35097,0 -5.143346,-2.182031 -1.792381,-2.182026 -2.64961,-5.221281 -0.779285,-3.117183 -0.935142,-6.390222 -0.155875,-3.350972 -0.155875,-5.688859 z m -11.065996,0 q 0,8.182602 1.558591,13.715601 1.63652,5.45507 4.364052,8.728114 2.727538,3.273044 6.312299,4.675774 3.662689,1.402731 7.715023,1.402731 4.13027,0 7.71503,-1.402731 3.66269,-1.40273 6.39023,-4.675774 2.80546,-3.273044 4.36405,-8.728114 1.63653,-5.532999 1.63653,-13.715601 0,-7.948819 -1.63653,-13.325961 -1.55859,-5.45507 -4.36405,-8.728109 -2.72754,-3.273044 -6.39023,-4.675774 -3.58476,-1.402736 -7.71503,-1.402736 -4.052334,0 -7.715023,1.402736 -3.584761,1.40273 -6.312299,4.675774 -2.727532,3.273039 -4.364052,8.728109 -1.558591,5.377142 -1.558591,13.325961 z" /><path
         id="text3"
         style="font-weight:bold;font-size:16.9333px;line-height:1.25;font-family:'Helvetica Neue';-inkscape-font-specification:'Helvetica Neue, Bold';text-align:center;text-anchor:middle;fill:#f2f2f2;stroke-width:0.264583"
         d="m 27.248933,42.15245 q 0,-1.870313 0.623435,-3.273044 0.701368,-1.40273 1.870309,-2.337887 1.168946,-0.935157 2.649609,-1.402731 1.558591,-0.545511 3.195111,-0.545511 2.571676,0 4.130268,0.779296 1.63652,0.779296 2.493744,1.948242 0.935156,1.168941 1.246874,2.493748 0.311703,1.246869 0.311703,2.337887 0,3.506829 -2.337887,5.377137 -2.337887,1.792381 -5.844716,1.792381 -3.350972,0 -5.84472,-1.792381 -2.493744,-1.870308 -2.493744,-5.377137 z M 17.196017,41.139365 q 0,4.052335 2.02617,7.09159 2.02617,3.039255 6.000576,4.130268 v 0.155875 q -4.909563,1.168945 -7.637096,4.675774 -2.649609,3.506833 -2.649609,8.728114 0,4.441985 1.714452,7.637096 1.792381,3.195116 4.675775,5.299214 2.961322,2.104098 6.624016,3.039255 3.740617,1.01308 7.715024,1.01308 3.818551,0 7.48124,-1.01308 3.66269,-1.091018 6.546083,-3.195116 2.883394,-2.104098 4.597847,-5.299209 1.79238,-3.195111 1.79238,-7.559168 0,-5.143353 -2.649604,-8.650186 -2.649609,-3.584757 -7.559168,-4.675774 v -0.155875 q 3.974406,-1.324803 5.922643,-4.364057 2.02617,-3.039255 2.02617,-7.09159 0,-2.02617 -0.935152,-4.519918 -0.935157,-2.571676 -3.117183,-4.753703 -2.104102,-2.259959 -5.610931,-3.81855 -3.506833,-1.558592 -8.572253,-1.558592 -3.350972,0 -6.624016,0.935157 -3.273039,0.935157 -5.922644,2.805466 -2.571676,1.870309 -4.2082,4.675774 -1.63652,2.805466 -1.63652,6.468155 z m 8.806042,24.236096 q 0,-4.208196 2.805466,-6.390227 2.805465,-2.259954 6.8578,-2.259954 1.948242,0 3.584762,0.623435 1.714452,0.623434 2.961322,1.79238 1.324806,1.168941 2.026169,2.805466 0.779296,1.558591 0.779296,3.506828 0,2.02617 -0.701363,3.740622 -0.701367,1.714448 -2.02617,2.961322 -1.246874,1.168946 -2.961326,1.870309 -1.63652,0.62344 -3.66269,0.62344 -1.948237,0 -3.740617,-0.62344 -1.792381,-0.701363 -3.117183,-1.870309 -1.246874,-1.246874 -2.02617,-2.961322 -0.779296,-1.714452 -0.779296,-3.81855 z" /><path
         id="rect1987"
         style="fill:#f2f2f2;fill-opacity:1;stroke:none;stroke-width:0.264583"
         d="m 60.656809,79.363007 h 1.773092 v 1.773092 h 5.319276 v -1.773092 h 1.773093 v -2.396449 c 0.556534,-0.840701 0.886547,-1.839116 0.886547,-2.92283 0,-2.937757 -2.381521,-5.319278 -5.319278,-5.319278 -2.937757,0 -5.319276,2.381521 -5.319276,5.319278 0,1.083714 0.330012,2.082129 0.886546,2.92283 z m 2.216365,-6.205825 c 0.979251,0 1.773091,0.79384 1.773091,1.773093 0,0.979251 -0.79384,1.773091 -1.773091,1.773091 -0.979253,0 -1.773093,-0.79384 -1.773093,-1.773091 0,-0.979253 0.79384,-1.773093 1.773093,-1.773093 z m 4.432731,0 c 0.979251,0 1.773091,0.79384 1.773091,1.773093 0,0.979251 -0.79384,1.773091 -1.773091,1.773091 -0.979254,0 -1.773093,-0.79384 -1.773093,-1.773091 0,-0.979253 0.793839,-1.773093 1.773093,-1.773093 z"
         inkscape:connector-curvature="0" /></g></g></svg>
