<?xml version="1.0" encoding="UTF-8" standalone="no"?>
<!-- Created with Inkscape (http://www.inkscape.org/) -->

<svg
   width="512"
   height="512"
   viewBox="0 0 135.46666 135.46667"
   version="1.1"
   id="svg1"
   inkscape:version="1.4.2 (ebf0e940, 2025-05-08)"
   sodipodi:docname="skull.svg"
   xml:space="preserve"
   xmlns:inkscape="http://www.inkscape.org/namespaces/inkscape"
   xmlns:sodipodi="http://sodipodi.sourceforge.net/DTD/sodipodi-0.dtd"
   xmlns="http://www.w3.org/2000/svg"
   xmlns:svg="http://www.w3.org/2000/svg"><sodipodi:namedview
     id="namedview1"
     pagecolor="#484848"
     bordercolor="#666666"
     borderopacity="1.0"
     inkscape:showpageshadow="2"
     inkscape:pageopacity="0.0"
     inkscape:pagecheckerboard="0"
     inkscape:deskcolor="#d1d1d1"
     inkscape:document-units="px"
     inkscape:zoom="2.0837246"
     inkscape:cx="324.89897"
     inkscape:cy="303.78294"
     inkscape:current-layer="layer1" /><defs
     id="defs1" /><g
     inkscape:label="Layer 1"
     inkscape:groupmode="layer"
     id="layer1"><path
       id="rect1987"
       style="fill:#ffffff;stroke:none;stroke-width:0.264583"
       d="m 19.352417,116.11427 h 19.35235 v 19.35239 h 58.05713 V 116.11427 H 116.11428 V 89.958285 c 6.07426,-9.17581 9.67618,-20.07299 9.67618,-31.90116 C 125.79046,25.993043 99.797427,0 67.733327,0 35.669267,0 9.6762075,25.993043 9.6762075,58.057125 c 0,11.82817 3.6019195,22.72535 9.6762095,31.90116 z m 24.19046,-67.733335 c 10.68803,0 19.35239,8.66435 19.35239,19.35238 0,10.68802 -8.66436,19.35237 -19.35239,19.35237 -10.68803,0 -19.35239,-8.66435 -19.35239,-19.35237 0,-10.68803 8.66436,-19.35238 19.35239,-19.35238 z m 48.38095,0 c 10.687993,0 19.352353,8.66435 19.352353,19.35238 0,10.68802 -8.66436,19.35237 -19.352353,19.35237 -10.68804,0 -19.35239,-8.66435 -19.35239,-19.35237 0,-10.68803 8.66435,-19.35238 19.35239,-19.35238 z"
       inkscape:connector-curvature="0" /></g></svg>
