<?xml version="1.0" encoding="UTF-8"?>
<!-- Created with Inkscape (http://www.inkscape.org/) -->
<svg width="512" height="512" version="1.1" viewBox="0 0 135.47 135.47" xmlns="http://www.w3.org/2000/svg">
 <g fill="none" stroke="#fff" stroke-linecap="round" stroke-linejoin="round">
  <path d="m5.2916 43.949h26.03v47.569h-26.03z" stroke-width="10.583" style="paint-order:stroke markers fill"/>
  <path d="m31.322 43.949 43.108-27.447v102.46l-43.108-27.447z" stop-color="#000000" stroke-width="10.583" style="-inkscape-stroke:none;font-variation-settings:normal;paint-order:stroke markers fill"/>
  <g transform="translate(.41586)">
   <path d="m87.72 51.875a21.287 21.287 0 0 1 7.0863 15.858 21.287 21.287 0 0 1-7.0863 15.858" stop-color="#000000" stroke-width="10.343" style="font-variation-settings:normal;paint-order:stroke markers fill"/>
   <path d="m99.71 39.68a37.703 37.703 0 0 1 12.513 28.053 37.703 37.703 0 0 1-12.513 28.053" stop-color="#000000" stroke-width="10.583" style="font-variation-settings:normal;paint-order:stroke markers fill"/>
   <path d="m111.78 27.396a54.24 54.24 0 0 1 17.979 40.338 54.24 54.24 0 0 1-17.979 40.338" stop-color="#000000" stroke-width="10.583" style="font-variation-settings:normal;paint-order:stroke markers fill"/>
  </g>
 </g>
</svg>
